# xmcd CD Database Entry
#
# Track frame offsets:
# 150
# 18926
# 38852
# 58621
# 79577
# 110895
# 131457
# 148740
# 167390
# 189943
# 209235
# 225891
# 241780
# 257977
#
# Disc length: 3919 seconds
#
# Revision: 1
# Processed by: cddbd v1.4PL0 Copyright (c) Steve Scherf et al.
# Submitted via: tcd 2.0b
#
DISCID=b90f4d0e
DTITLE=Sergio Cammariere - Dalla Pace Del Mare Lontano
DYEAR=1900
DGENRE=
TTITLE0=Tutto quello che un uomo
TTITLE1=Sorella mia
TTITLE2=Tempo perduto
TTITLE3=Via da questo mare
TTITLE4=Cambiamenti del mondo
TTITLE5=Dalla pace del mare lontano
TTITLE6=Apri la porta
TTITLE7=Canto nel vento
TTITLE8=Le porte del sogno
TTITLE9=Il mare
TTITLE10=Per ricordarmi di te
TTITLE11=Paese di gaol
TTITLE12=Vita d'artista
TTITLE13=Cantautore piccolino
EXTD=
EXTT0=
EXTT1=
EXTT2=
EXTT3=
EXTT4=
EXTT5=
EXTT6=
EXTT7=
EXTT8=
EXTT9=
EXTT10=
EXTT11=
EXTT12=
EXTT13=
PLAYORDER=
